                  The Proposal 2001 DVDRip Xvid fasamoo LKRG

RIPPER                           : fasamoo
Format                           : AVI
Format/Info                      : Audio Video Interleave
File size                        : 699 MiB
Duration                         : 1h 54mn
Overall bit rate                 : 852 Kbps
Writing application              : VirtualDubMod 1.5.4.1 (build 2178/release)
Writing library                  : VirtualDubMod build 2178/release
Language                         : Spanish
Subtitles                        :  English(hardcoded)
Genre                            : Drama | Comedy

Video
ID                               : 0
Format                           : MPEG-4 Visual
Format profile                   : Advanced Simple@L5
Format settings, BVOP            : Yes
Format settings, QPel            : No
Format settings, GMC             : No warppoints
Format settings, Matrix          : Custom
Codec ID                         : XVID
Codec ID/Hint                    : XviD
Duration                         : 1h 54mn
Bit rate                         : 724 Kbps
Width                            : 448 pixels
Height                           : 272 pixels
Display aspect ratio             : 1.647
Frame rate                       : 23.976 fps
Color space                      : YUV
Chroma subsampling               : 4:2:0
Bit depth                        : 8 bits
Scan type                        : Progressive
Bits/(Pixel*Frame)               : 0.248
Stream size                      : 595 MiB (85%)
Writing library                  : XviD 1.2.1 (UTC 2008-12-04)

Audio
ID                               : 1
Format                           : MPEG Audio
Format version                   : Version 1
Format profile                   : Layer 3
Mode                             : Joint stereo
Mode extension                   : MS Stereo
Codec ID                         : 55
Codec ID/Hint                    : MP3
Duration                         : 1h 54mn
Bit rate mode                    : Variable
Bit rate                         : 115 Kbps
Nominal bit rate                 : 128 Kbps
Channel(s)                       : 2 channels
Sampling rate                    : 48.0 KHz
Stream size                      : 94.3 MiB (13%)
Alignment                        : Aligned on interleaves
Interleave, duration             : 24 ms (0.58 video frame)
Interleave, preload duration     : 160 ms
Writing library                  : LAME3.98r
Encoding settings                : -m j -V 4 -q 2 -lowpass 17 --abr 128


                                 PLOT


Kika, a young cosmetologist, is called to the mansion of Nicolas, an American writer to make-up the corpse of his stepson, Ramon. Ramon, who is not dead, is revived by Kika's attentions and she then moves in with him. They might live happily ever after but first they have to cope with Kika's affair with Nicolas, the suspicious death of Ramon's mother and the intrusive gaze of tabloid-TV star and Ramon's ex-psychologist Andrea Scarface.

                                 IMBD
                     
                    http://www.imdb.com/title/tt0179435/
 
http://leetleech.org/images/99141302333233693153.png 
http://leetleech.org/images/33866773632155749293.png 
http://leetleech.org/images/89587483422382238961.png 
http://leetleech.org/images/37494898214512785202.png 
http://leetleech.org/images/34081287599436586023.png